<svg version="1.1" id="Layer_1" xmlns="http://www.w3.org/2000/svg" xmlns:xlink="http://www.w3.org/1999/xlink" x="0px" y="0px" viewBox="0 0 600 600" enable-background="new 0 0 600 600" xml:space="preserve" height="58px" width="58px"><path id="color_x5F_3_3_" d="M300,33.352C152.972,33.352,33.356,152.969,33.356,300c0,147.028,119.616,266.644,266.644,266.644    c147.031,0,266.648-119.616,266.648-266.644C566.648,152.969,447.031,33.352,300,33.352z M300,558.784    C157.305,558.784,41.216,442.695,41.216,300S157.305,41.213,300,41.213S558.787,157.306,558.787,300S442.694,558.784,300,558.784z     M300,0C134.58,0,0,134.581,0,300C0,465.42,134.58,600,300,600S600,465.42,600,300C600,134.581,465.419,0,300,0z M300,580.35    C145.415,580.35,19.65,454.585,19.65,300S145.415,19.651,300,19.651S580.349,145.415,580.349,300S454.585,580.35,300,580.35z"></path><polygon id="color_x5F_2_11_" points="457.567,144.272 446.452,133.157 290.725,288.883 134.999,133.157 123.884,144.272     279.61,299.998 123.884,455.725 134.999,466.84 290.725,311.113 446.452,466.84 457.567,455.725 301.84,299.998 "></polygon><path id="color_x5F_1_19_" d="M536.107,326.533c-0.386-3.42-2.507-6.092-4.604-9.029c-2.097-2.936-2.726-7.341-2.726-7.341    c-4.825-6.292-7.539-25.09-7.933-31.171c-0.669-10.318-4.232-13.924-4.232-13.924c2.098,3.985,2.307,17.408,1.678,23.491    c-0.63,6.082,1.887,18.038,3.355,23.491c1.468,5.453-0.21,13.423-1.048,20.555c-0.839,7.131,0,20.555,0,20.555h-11.956    c0,0,3.985-3.985,5.034-7.132c1.049-3.146,0.63-19.086,0-22.023c-0.629-2.936-4.194-6.711-4.194-6.711l-0.294,12.184l-2.224,23.682    h-10.906l5.701-7.457l-0.943-18.032c-1.6,1.457-4.076,2.409-4.076,2.409s0.381,4.207-1.492,4.653    c-1.485,0.354-2.127-3.806-2.127-3.806c-1.887,0.21-5.365-0.208-5.365-0.208c-0.839,2.727-1.694,3.568-3.024,3.144    c-1.341-0.428-0.9-2.609-1.049-4.405c-2.517-2.307-5.024-5.072-5.663-9.439c-1.049-0.839-9.105-4.729-13.719-4.729    c-4.615,0-22.672,2.451-22.672,2.451s-3.371,10.837-3.371,16.188c0,3.663-3.864,19.229-3.864,19.229h-8.809l3.775-3.796    l-0.63-16.969l-1.468-14.053c0,0-3.274,11.307-3.452,17.014c-0.106,3.387-2.211,17.803-2.211,17.803h-8.389l2.097-5.264    c1.369-11.468-5.49-29.1-5.49-29.1c-5.398-3.286-12.128-13.877-14.225-16.394c-2.097-2.517-7.455-12.887-12.094-14.849    c-4.638-1.962-6.77-1.783-11.594-1.783c-4.824,0-6.935-2.874-7.354-5.181c-0.42-2.307,2.307-5.034,3.356-6.922    c1.049-1.887-0.419-5.873-0.21-8.809c0.21-2.937,1.399-5.475,1.399-5.475c-6.247,0.721-8.722-8.154-8.722-8.154    c3.568-0.357,9.333,1.749,9.333,1.749s4.28-0.714,4.994-3.211c0.713-2.497,4.337-3.192,6.421-2.854    c2.085,0.337,6.5-0.303,7.129,2.634c0.63,2.937,2.937,3.985,2.937,3.985c5.034-1.678,11.956-1.678,11.956-1.678    c-1.93,4.558-4.161,6.527-4.161,6.527c4.405,0.839,12.517-4.168,21.084-3.649c8.186,0.498,23.138,2.365,27.73,3.833    c4.592,1.468,29.805-0.42,38.195-1.678c8.389-1.259,16.515-3.077,22.725-1.977c14.092,2.498,15.868,10.996,17.336,16.869    c1.468,5.872-0.21,19.506,1.048,28.077c1.259,8.571,5.244,7.999,7.341,11.984C536.537,315.827,537.995,320.87,536.107,326.533z     M145.258,313.26c-6.666,1.79-38.887,4.177-46.109-1.194c0,0-2.222,9.548,0,14.323c2.222,4.774,8.9,10.742,8.9,10.742h-7.162    l-6.714-4.844c0,0-5.942-9.544-5.148-18.352c0,0-5.987,6.485-5.987,11.856c0,5.371,6.666,11.339,6.666,11.339h-6.666l-5.882-4.173    c0,0-2.277-12.975,0-26.361c0,0-6.339-14.823-0.785-32.726c0.041-0.131,0.091-0.249,0.133-0.378    c-0.126-0.512-0.28-0.995-0.466-1.442c-0.135,0.312-0.289,0.62-0.464,0.924c-1.263,2.174-3.512,3.49-5.784,3.399    c-1.481-0.068-2.853-0.761-3.859-1.939c-1.146-1.344-1.626-3.109-1.281-4.725c0.596-2.794,3.418-4.968,6.564-5.055    c0.684,0.014,1.364,0.088,2.034,0.167c0.207-1.298-0.697-2.608-1.529-3.581c-0.534-0.626-2.522-1.652-2.149-2.565    c0.507-1.241,3.36,0.02,4.181,0.486c1.57,0.894,3.019,2.474,3.412,4.138c0.297,1.272,0.202,2.548,0.051,3.667    c0.408,0.37,0.79,0.776,1.136,1.221c0.053,0.068,0.091,0.148,0.142,0.217c6.39-13.678,18.294-18.604,30.653-20.196    c13.122-1.692,52.031-2.294,89.553,14.758c2.592-2.642,6.656-3.4,11.059-3.547c-2.774,1.907-4.261,3.507-5.836,6.064    c0.663,0.329,0.668,0.288,1.33,0.628c0,0,11.111-1.791,15.555,0c0,0-9.999,3.581-11.111,10.146c0,0,2.778,7.758,3.334,14.323    c0.555,6.565,6.666,8.952,10.555,8.355c0,0-1.112,8.356-5,10.146c-3.889,1.79-8.889-1.791-13.333,0    c-4.444,1.79-22.221-0.16-26.665,0.517c-4.444,0.677-4.135,18.511-2.504,20.898c1.63,2.387,4.726,6.635,4.726,6.635h-10.545    c0,0-4.177-15.919-6.594-22.767c-1.695,6.746-0.137,16.664-0.137,16.664l4.716,6.103h-10.518l-3.945-24.847    C150.865,312.338,147.75,312.59,145.258,313.26z M72.85,268.652c-0.469-0.189-0.952-0.29-1.421-0.29c-0.03,0-0.06,0.004-0.09,0.004    c-1.258,0.033-2.474,0.957-2.708,2.055c-0.119,0.558,0.075,1.24,0.497,1.732c0.27,0.315,0.59,0.503,0.879,0.518    c0.588-0.04,1.486-0.576,1.986-1.435C72.429,270.486,72.671,269.587,72.85,268.652z M216.415,158.304    c7.066,4.576,16.597,3.509,24.124-0.261c7.527-3.771,13.59-9.847,19.886-15.435c6.296-5.588,13.269-10.932,21.503-12.686    c8.234-1.755,17.987,1.068,21.929,8.507c0.956-5.414,0.637-12.499-2.063-17.925c-2.702-5.426-6.25-11.084-8.017-16.882    c-1.767-5.799-2.861-11.367-0.355-16.885c2.736-6.026,8.288-9.64,14.675-9.657c4.004-0.01,8.814,2.335,11.883,6.311    c3.606,4.671,3.136,6.484,5.267,10.888c1.463,3.024,4.652,6.565,8.014,8.981c1.578,1.134,0.897,3.637-1.044,3.735    c-5.565,0.281-11.306-2.131-14.708-6.581c-3.302,1.9-7.652,1.813-10.877-0.216c9.425,11.753,18.83,27.99,22.348,42.639    c3.4,14.159-0.565,28.167-9.133,39.092c-5.722,7.295-13.496,13.216-22.498,16.887c-2.02,0.824-4.109,1.456-6.221,1.999    c0.08,0.604,0.151,1.21,0.284,1.806c0.774,3.466,2.661,6.842,5.741,8.609c2.001,1.148,4.335,1.538,6.613,1.908    c4.424,0.719,8.849,1.439,13.274,2.157c-1.014,2.786-3.987,4.48-6.932,4.826c-0.394,0.046-0.788,0.028-1.181,0.038    c-1.204,1.596-3.311,2.623-5.579,4.423c-8.086,0-12.086-1.645-19.669-2.514c-3.186-6.747-4.222-13.087-5.767-19.619    c-17.767-0.039-35.717-8.601-44.778-23.759c3.264,0.136,8.418,0.891,10.166-1.869C231.996,175.185,222.467,167.988,216.415,158.304z     M291.034,215.812c-1.852-4.103-3.579-9.291-4.211-14.085c-1.472,0.245-2.953,0.428-4.444,0.548    c0.65,4.425,1.912,9.369,5.998,12.145C289.155,214.949,290.067,215.399,291.034,215.812z M262.663,182.406    c8.333,1.256,17.125-0.844,23.992-5.729c6.867-4.886,11.732-12.503,13.277-20.788C291.731,169.234,277.96,179.032,262.663,182.406z     M343.173,421.456c9.888,4.802,17.732,13.66,21.303,24.057c3.571,10.398,2.825,22.205-2.026,32.071    c-0.744-13.384-9.88-30.619-22.939-31.209c6.317,5.03,10.713,12.417,12.119,20.368c1.407,7.952-0.188,16.398-4.396,23.29    c0.981-6.723-1.563-13.862-6.575-18.449c-5.012-4.586-12.839-5.381-19.45-3.811c-6.531,1.691-17.821,11.111-22.745,27.042    c-0.539,1.743-1.168,9.43-1.945,15.091l5.921,0.821c1.697,0.236,2.882,1.8,2.646,3.497c-0.215,1.558-1.545,2.678-3.069,2.678    c-0.142,0-0.285-0.012-0.431-0.03l-5.996-0.831c-0.207,0.193-0.424,0.38-0.685,0.516l-11.636,6.012    c-0.455,0.237-0.942,0.345-1.421,0.345c-1.125,0-2.209-0.612-2.761-1.679c-0.784-1.521-0.188-3.394,1.334-4.182l0.294-0.152h-3.137    c-0.061,0-0.113-0.031-0.174-0.035l-5.047,1.333c-0.264,0.072-0.531,0.103-0.795,0.103c-1.372,0-2.63-0.921-2.996-2.309    c-0.437-1.661,0.551-3.358,2.209-3.794l2.631-0.697l-1.086-0.284c-1.655-0.443-2.642-2.14-2.203-3.794    c0.44-1.661,2.155-2.654,3.797-2.206l8.512,2.26c-1.563-8.059-4.552-18.596-8.891-24.551c-7.819-3.591-18.393-7.918-25.535-14.524    c-8.898-8.23-13.146-21.172-11.838-33.686c0-3.462,5.997-9.637,4.344-15.97c-1.681,6.324-4.238,8.981-4.328,9.074    c-1.832,1.586-4.982,1.581-6.904-0.043c-2.282-1.927-2.828-5.395-1.871-8.223c0.957-2.829,5.128-7.57,7.579-9.277    c-2.148-0.763-3.458-2.011-6.452-1.262c0.686-2.558,3.368-4.99,7.485-6.363c0.44-0.147,1.142-1.038,1.255-1.904    c-6.289-2.955-6.052-7.83-5.77-10.45c0.283-2.62,2.484-4.819,5.043-5.444c2.56-0.625,6.028-0.108,8.112,1.504    c-1.734-1.464-1.786-4.902-1.532-7.158c0.424-3.777,4.55-6.756,8.222-5.777c3.673,0.979,5.266,5.379,5.094,9.84    c1.291-2.891,3.758-5.351,6.824-6.144c3.065-0.793,6.665,0.34,8.349,3.022c1.98,3.155,0.879,7.498-1.565,10.308    c-2.444,2.811-6.577,4.55-9.964,6.101c-0.581,9.825,3.319,19.826,10.397,26.664c7.078,6.837,17.209,10.39,27.008,9.469    c-5.478-7.468-5.889-20.008-0.703-27.681c5.186-7.673,14.426-12.098,23.675-12.557c9.25-0.458,18.436,2.735,26.198,7.789    c15.247,9.927,25.349,27.346,26.395,45.508C368.243,432.971,357.145,420.664,343.173,421.456z M290.762,509.109    c-0.72-7.837-2.703-18.303-6.464-20.483c1.478,4.775,2.682,13.811,2.914,19.991L290.762,509.109z M310.766,460.08    c-8.714,4.415-19.446,5.046-28.299,0.917c-8.853-4.128-15.416-13.191-15.79-22.952c-2.059,10.86,3.828,22.74,13.716,27.682    C290.281,470.669,303.315,468.245,310.766,460.08z"></path></svg>
