<svg  viewBox="0 0 32 33" fill="none" xmlns="http://www.w3.org/2000/svg">
<g >
<path d="M16 22.9C16.4533 22.9 16.8336 22.7464 17.1408 22.4392C17.448 22.132 17.6011 21.7523 17.6 21.3V16.18L19.04 17.62C19.3333 17.9133 19.7067 18.06 20.16 18.06C20.6133 18.06 20.9867 17.9133 21.28 17.62C21.5733 17.3267 21.72 16.9533 21.72 16.5C21.72 16.0467 21.5733 15.6733 21.28 15.38L17.12 11.22C16.96 11.06 16.7867 10.9469 16.6 10.8808C16.4133 10.8147 16.2133 10.7811 16 10.78C15.7867 10.78 15.5867 10.8136 15.4 10.8808C15.2133 10.948 15.04 11.0611 14.88 11.22L10.72 15.38C10.4267 15.6733 10.28 16.0467 10.28 16.5C10.28 16.9533 10.4267 17.3267 10.72 17.62C11.0133 17.9133 11.3867 18.06 11.84 18.06C12.2933 18.06 12.6667 17.9133 12.96 17.62L14.4 16.18V21.3C14.4 21.7533 14.5536 22.1336 14.8608 22.4408C15.168 22.748 15.5477 22.9011 16 22.9ZM16 32.5C13.7867 32.5 11.7067 32.0797 9.76 31.2392C7.81333 30.3987 6.12 29.2589 4.68 27.82C3.24 26.38 2.10027 24.6867 1.2608 22.74C0.421333 20.7933 0.00106667 18.7133 0 16.5C0 14.2867 0.420267 12.2067 1.2608 10.26C2.10133 8.31333 3.24107 6.62 4.68 5.18C6.12 3.74 7.81333 2.60027 9.76 1.7608C11.7067 0.921333 13.7867 0.501067 16 0.5C18.2133 0.5 20.2933 0.920267 22.24 1.7608C24.1867 2.60133 25.88 3.74107 27.32 5.18C28.76 6.62 29.9003 8.31333 30.7408 10.26C31.5813 12.2067 32.0011 14.2867 32 16.5C32 18.7133 31.5797 20.7933 30.7392 22.74C29.8987 24.6867 28.7589 26.38 27.32 27.82C25.88 29.26 24.1867 30.4003 22.24 31.2408C20.2933 32.0813 18.2133 32.5011 16 32.5Z" fill="currentColor"/>
<path d="M16 22.9C16.4533 22.9 16.8336 22.7464 17.1408 22.4392C17.448 22.132 17.6011 21.7523 17.6 21.3V16.18L19.04 17.62C19.3333 17.9133 19.7067 18.06 20.16 18.06C20.6133 18.06 20.9867 17.9133 21.28 17.62C21.5733 17.3267 21.72 16.9533 21.72 16.5C21.72 16.0467 21.5733 15.6733 21.28 15.38L17.12 11.22C16.96 11.06 16.7867 10.9469 16.6 10.8808C16.4133 10.8147 16.2133 10.7811 16 10.78C15.7867 10.78 15.5867 10.8136 15.4 10.8808C15.2133 10.948 15.04 11.0611 14.88 11.22L10.72 15.38C10.4267 15.6733 10.28 16.0467 10.28 16.5C10.28 16.9533 10.4267 17.3267 10.72 17.62C11.0133 17.9133 11.3867 18.06 11.84 18.06C12.2933 18.06 12.6667 17.9133 12.96 17.62L14.4 16.18V21.3C14.4 21.7533 14.5536 22.1336 14.8608 22.4408C15.168 22.748 15.5477 22.9011 16 22.9ZM16 32.5C13.7867 32.5 11.7067 32.0797 9.76 31.2392C7.81333 30.3987 6.12 29.2589 4.68 27.82C3.24 26.38 2.10027 24.6867 1.2608 22.74C0.421333 20.7933 0.00106667 18.7133 0 16.5C0 14.2867 0.420267 12.2067 1.2608 10.26C2.10133 8.31333 3.24107 6.62 4.68 5.18C6.12 3.74 7.81333 2.60027 9.76 1.7608C11.7067 0.921333 13.7867 0.501067 16 0.5C18.2133 0.5 20.2933 0.920267 22.24 1.7608C24.1867 2.60133 25.88 3.74107 27.32 5.18C28.76 6.62 29.9003 8.31333 30.7408 10.26C31.5813 12.2067 32.0011 14.2867 32 16.5C32 18.7133 31.5797 20.7933 30.7392 22.74C29.8987 24.6867 28.7589 26.38 27.32 27.82C25.88 29.26 24.1867 30.4003 22.24 31.2408C20.2933 32.0813 18.2133 32.5011 16 32.5Z" fill="currentColor"/>
</g>
</svg>
