<?xml version="1.0" encoding="UTF-8" standalone="no"?> <svg  viewBox="0 0 52 50" fill="none" xmlns="http://www.w3.org/2000/svg">
<path d="M25.8076 6.29905C25.8618 6.2689 25.9296 6.25 26.0048 6.25C26.08 6.25 26.1478 6.2689 26.2021 6.29905C26.2489 6.32509 26.3109 6.37268 26.3731 6.47851L47.8011 42.9368C47.9125 43.1265 47.9103 43.3249 47.8078 43.5098C47.7564 43.6025 47.6921 43.6636 47.6368 43.6979C47.5908 43.7264 47.5314 43.75 47.4328 43.75H4.57685C4.47823 43.75 4.41889 43.7264 4.37288 43.6979C4.31759 43.6636 4.2533 43.6025 4.2019 43.5098C4.09938 43.3249 4.09714 43.1265 4.20858 42.9368L25.6366 6.47851C25.6988 6.37268 25.7607 6.32509 25.8076 6.29905ZM29.0672 4.89507C27.6801 2.53498 24.3296 2.53498 22.9424 4.89507L1.51446 41.3534C0.0862282 43.7834 1.80087 46.875 4.57685 46.875H47.4328C50.2088 46.875 51.9234 43.7834 50.4952 41.3534L29.0672 4.89507Z" fill="black"/>
<path d="M22.8798 37.5C22.8798 35.7741 24.2789 34.375 26.0048 34.375C27.7307 34.375 29.1298 35.7741 29.1298 37.5C29.1298 39.2259 27.7307 40.625 26.0048 40.625C24.2789 40.625 22.8798 39.2259 22.8798 37.5Z" fill="black"/>
<path d="M23.1859 18.7345C23.0195 17.0696 24.3268 15.625 26 15.625C27.6732 15.625 28.9805 17.0696 28.8141 18.7345L27.718 29.6953C27.6297 30.5779 26.887 31.25 26 31.25C25.113 31.25 24.3703 30.5779 24.282 29.6953L23.1859 18.7345Z" fill="black"/>
<path d="M25.6366 6.47851L25.2055 6.22516L25.2055 6.22516L25.6366 6.47851ZM25.8076 6.29905L26.0504 6.7361L26.0504 6.7361L25.8076 6.29905ZM4.20858 42.9368L4.63964 43.1902L4.63964 43.1902L4.20858 42.9368ZM4.2019 43.5098L4.63915 43.2673L4.63915 43.2673L4.2019 43.5098ZM4.37288 43.6979L4.10943 44.1229L4.10944 44.1229L4.37288 43.6979ZM47.6368 43.6979L47.9002 44.1229L47.9002 44.1229L47.6368 43.6979ZM47.8078 43.5098L48.245 43.7523L48.245 43.7523L47.8078 43.5098ZM47.8011 42.9368L47.37 43.1902L47.37 43.1902L47.8011 42.9368ZM26.3731 6.47851L25.942 6.73186L25.942 6.73186L26.3731 6.47851ZM26.2021 6.29905L26.445 5.86201L26.445 5.862L26.2021 6.29905ZM22.9424 4.89507L23.3735 5.14842L23.3735 5.14842L22.9424 4.89507ZM29.0672 4.89507L28.6362 5.14842L28.6362 5.14842L29.0672 4.89507ZM1.51446 41.3534L1.94552 41.6068L1.94552 41.6068L1.51446 41.3534ZM50.4952 41.3534L50.0641 41.6068L50.0641 41.6068L50.4952 41.3534ZM23.1859 18.7345L23.6835 18.6847L23.6835 18.6847L23.1859 18.7345ZM28.8141 18.7345L28.3165 18.6847L28.3165 18.6847L28.8141 18.7345ZM27.718 29.6953L27.2205 29.6455L27.2205 29.6455L27.718 29.6953ZM24.282 29.6953L24.7795 29.6455L24.7795 29.6455L24.282 29.6953ZM26.0676 6.73187C26.0783 6.71372 26.0825 6.7114 26.0768 6.71691C26.0742 6.7195 26.0702 6.72297 26.065 6.72678C26.0598 6.73061 26.0547 6.73375 26.0504 6.7361L25.5647 5.86201C25.4403 5.93114 25.3132 6.04196 25.2055 6.22516L26.0676 6.73187ZM4.63964 43.1902L26.0676 6.73186L25.2055 6.22516L3.77752 42.6835L4.63964 43.1902ZM4.63915 43.2673C4.62463 43.2411 4.62499 43.229 4.625 43.228C4.625 43.2275 4.6244 43.2161 4.63964 43.1902L3.77752 42.6835C3.57382 43.0301 3.57883 43.4173 3.76465 43.7523L4.63915 43.2673ZM4.63632 43.2729C4.64732 43.2798 4.65079 43.2839 4.64957 43.2826C4.64876 43.2817 4.64458 43.2771 4.63915 43.2673L3.76465 43.7523C3.85588 43.9168 3.97887 44.0419 4.10943 44.1229L4.63632 43.2729ZM4.57685 43.25C4.56809 43.25 4.57568 43.2491 4.59323 43.2541C4.60165 43.2565 4.61027 43.2597 4.61859 43.2635C4.62681 43.2673 4.63291 43.2708 4.63631 43.2729L4.10944 44.1229C4.23316 44.1996 4.38351 44.25 4.57685 44.25V43.25ZM47.4328 43.25H4.57685V44.25H47.4328V43.25ZM47.3734 43.2729C47.3767 43.2708 47.3828 43.2673 47.3911 43.2635C47.3994 43.2597 47.408 43.2565 47.4164 43.2541C47.434 43.2491 47.4416 43.25 47.4328 43.25V44.25C47.6261 44.25 47.7765 44.1996 47.9002 44.1229L47.3734 43.2729ZM47.3705 43.2673C47.3651 43.2771 47.3609 43.2817 47.3601 43.2826C47.3589 43.2839 47.3623 43.2798 47.3733 43.2729L47.9002 44.1229C48.0308 44.0419 48.1538 43.9168 48.245 43.7523L47.3705 43.2673ZM47.37 43.1902C47.3853 43.2161 47.3847 43.2275 47.3847 43.228C47.3847 43.229 47.385 43.2411 47.3705 43.2673L48.245 43.7523C48.4308 43.4173 48.4358 43.0301 48.2321 42.6835L47.37 43.1902ZM25.942 6.73186L47.37 43.1902L48.2321 42.6835L26.8041 6.22516L25.942 6.73186ZM25.9592 6.73609C25.955 6.73375 25.9499 6.73061 25.9447 6.72678C25.9395 6.72297 25.9355 6.7195 25.9328 6.71691C25.9272 6.7114 25.9314 6.71371 25.942 6.73186L26.8042 6.22517C26.6965 6.04196 26.5694 5.93114 26.445 5.86201L25.9592 6.73609ZM26.0048 6.75C25.9969 6.75 25.9808 6.74812 25.9592 6.7361L26.445 5.862C26.3148 5.78969 26.1632 5.75 26.0048 5.75V6.75ZM26.0504 6.7361C26.0288 6.74812 26.0128 6.75 26.0048 6.75V5.75C25.8465 5.75 25.6948 5.78968 25.5647 5.86201L26.0504 6.7361ZM23.3735 5.14842C24.5673 3.11719 27.4423 3.11719 28.6362 5.14842L29.4983 4.64172C27.9179 1.95276 24.0918 1.95276 22.5114 4.64172L23.3735 5.14842ZM1.94552 41.6068L23.3735 5.14842L22.5114 4.64172L1.08339 41.1001L1.94552 41.6068ZM4.57685 46.375C2.20533 46.375 0.704087 43.719 1.94552 41.6068L1.08339 41.1001C-0.531631 43.8479 1.39641 47.375 4.57685 47.375V46.375ZM47.4328 46.375H4.57685V47.375H47.4328V46.375ZM50.0641 41.6068C51.3056 43.719 49.8043 46.375 47.4328 46.375V47.375C50.6132 47.375 52.5413 43.8479 50.9263 41.1001L50.0641 41.6068ZM28.6362 5.14842L50.0641 41.6068L50.9263 41.1001L29.4983 4.64172L28.6362 5.14842ZM23.3798 37.5C23.3798 36.0503 24.5551 34.875 26.0048 34.875V33.875C24.0028 33.875 22.3798 35.498 22.3798 37.5H23.3798ZM26.0048 34.875C27.4546 34.875 28.6298 36.0503 28.6298 37.5H29.6298C29.6298 35.498 28.0068 33.875 26.0048 33.875V34.875ZM28.6298 37.5C28.6298 38.9497 27.4546 40.125 26.0048 40.125V41.125C28.0068 41.125 29.6298 39.502 29.6298 37.5H28.6298ZM26.0048 40.125C24.5551 40.125 23.3798 38.9497 23.3798 37.5H22.3798C22.3798 39.502 24.0028 41.125 26.0048 41.125V40.125ZM23.6835 18.6847C23.5464 17.3142 24.6227 16.125 26 16.125V15.125C24.031 15.125 22.4925 16.825 22.6884 18.7842L23.6835 18.6847ZM26 16.125C27.3773 16.125 28.4536 17.3142 28.3165 18.6847L29.3116 18.7842C29.5075 16.825 27.969 15.125 26 15.125V16.125ZM28.3165 18.6847L27.2205 29.6455L28.2155 29.745L29.3116 18.7842L28.3165 18.6847ZM27.2205 29.6455C27.1578 30.2725 26.6301 30.75 26 30.75V31.75C27.1439 31.75 28.1017 30.8832 28.2155 29.745L27.2205 29.6455ZM26 30.75C25.3699 30.75 24.8422 30.2725 24.7795 29.6455L23.7845 29.745C23.8983 30.8832 24.8561 31.75 26 31.75V30.75ZM24.7795 29.6455L23.6835 18.6847L22.6884 18.7842L23.7845 29.745L24.7795 29.6455Z" fill="black"/>
</svg>
