<svg width="25" height="25" viewBox="0 0 25 25" fill="none" xmlns="http://www.w3.org/2000/svg">
<path fill-rule="evenodd" clip-rule="evenodd" d="M3.74658 4.58472C3.74658 4.1705 4.08237 3.83472 4.49658 3.83472H20.5032C20.9175 3.83472 21.2532 4.1705 21.2532 4.58472C21.2532 4.99893 20.9175 5.33472 20.5032 5.33472H4.49658C4.08237 5.33472 3.74658 4.99893 3.74658 4.58472Z" fill="currentColor"/>
<path fill-rule="evenodd" clip-rule="evenodd" d="M3.74658 8.58638C3.74658 8.17217 4.08237 7.83638 4.49658 7.83638H20.5032C20.9175 7.83638 21.2532 8.17217 21.2532 8.58638C21.2532 9.0006 20.9175 9.33638 20.5032 9.33638H4.49658C4.08237 9.33638 3.74658 9.0006 3.74658 8.58638Z" fill="currentColor"/>
<path fill-rule="evenodd" clip-rule="evenodd" d="M3.74658 12.588C3.74658 12.1738 4.08237 11.838 4.49658 11.838H20.5032C20.9175 11.838 21.2532 12.1738 21.2532 12.588C21.2532 13.0023 20.9175 13.338 20.5032 13.338H4.49658C4.08237 13.338 3.74658 13.0023 3.74658 12.588Z" fill="currentColor"/>
<path fill-rule="evenodd" clip-rule="evenodd" d="M3.74658 16.5897C3.74658 16.1755 4.08237 15.8397 4.49658 15.8397H20.5032C20.9175 15.8397 21.2532 16.1755 21.2532 16.5897C21.2532 17.0039 20.9175 17.3397 20.5032 17.3397H4.49658C4.08237 17.3397 3.74658 17.0039 3.74658 16.5897Z" fill="currentColor"/>
<path fill-rule="evenodd" clip-rule="evenodd" d="M3.74658 20.5914C3.74658 20.1772 4.08237 19.8414 4.49658 19.8414H12.4999C12.9141 19.8414 13.2499 20.1772 13.2499 20.5914C13.2499 21.0056 12.9141 21.3414 12.4999 21.3414H4.49658C4.08237 21.3414 3.74658 21.0056 3.74658 20.5914Z" fill="currentColor"/>
</svg>
